<?xml version="1.0" encoding="UTF-8"?>
<svg id="Camada_1" xmlns="http://www.w3.org/2000/svg" height="36px" viewBox="0 0 847.67 233.56">
  <defs>
    <style>
      .cls-1 {
        fill: #706f6f;
      }

      .cls-1,
      .cls-2 {
        stroke-width: 0px;
      }

      .cls-2 {
        fill: #1d1d1b;
      }
    </style>
  </defs>
  <path class="cls-2"
    d="M565.09,58.88c-2.06,1.06-6.38,2.13-11.84,2.13-12.64,0-22.08-7.98-22.08-22.75s9.51-23.54,23.41-23.54c5.52,0,9.11,1.2,10.64,2l-1.46,4.72c-2.13-1.06-5.25-1.86-8.98-1.86-10.51,0-17.49,6.72-17.49,18.49,0,11.04,6.32,18.02,17.16,18.02,3.59,0,7.18-.73,9.51-1.86l1.13,4.66Z" />
  <path class="cls-2"
    d="M609.32,37.4c0,15.36-9.38,23.61-20.81,23.61s-20.15-9.25-20.15-22.81c0-14.23,8.78-23.54,20.75-23.54s20.22,9.38,20.22,22.75ZM574.47,38.06c0,9.64,5.19,18.22,14.37,18.22s14.36-8.45,14.36-18.62c0-8.98-4.66-18.29-14.3-18.29s-14.43,8.91-14.43,18.69Z" />
  <path class="cls-2"
    d="M616.85,60.27V15.45h6.38l14.3,22.68c3.26,5.25,5.92,9.97,7.98,14.56l.2-.07c-.53-5.98-.66-11.44-.66-18.42V15.45h5.45v44.83h-5.85l-14.23-22.74c-3.13-4.99-6.12-10.11-8.32-14.96l-.2.07c.33,5.65.4,11.04.4,18.49v19.15h-5.45Z" />
  <path class="cls-2"
    d="M659.89,53.22c2.59,1.66,6.32,2.93,10.31,2.93,5.92,0,9.38-3.12,9.38-7.65,0-4.12-2.39-6.58-8.45-8.84-7.32-2.66-11.84-6.52-11.84-12.77,0-6.98,5.79-12.17,14.5-12.17,4.52,0,7.91,1.06,9.84,2.19l-1.6,4.72c-1.4-.87-4.39-2.13-8.45-2.13-6.12,0-8.45,3.66-8.45,6.72,0,4.19,2.73,6.25,8.91,8.65,7.58,2.92,11.37,6.58,11.37,13.17,0,6.92-5.05,12.97-15.63,12.97-4.32,0-9.05-1.33-11.44-2.93l1.53-4.86Z" />
  <path class="cls-2" d="M716.56,39.26h-17.36v16.16h19.42v4.85h-25.27V15.45h24.28v4.86h-18.42v14.17h17.36v4.79Z" />
  <path class="cls-2" d="M726.08,15.45h5.85v39.97h19.15v4.85h-25.01V15.45Z" />
  <path class="cls-2" d="M763.33,15.45v18.75h21.68V15.45h5.85v44.83h-5.85v-21.01h-21.68v21.01h-5.85V15.45h5.85Z" />
  <path class="cls-2"
    d="M839.22,37.4c0,15.36-9.38,23.61-20.81,23.61s-20.15-9.25-20.15-22.81c0-14.23,8.78-23.54,20.75-23.54s20.22,9.38,20.22,22.75ZM804.37,38.06c0,9.64,5.19,18.22,14.37,18.22s14.36-8.45,14.36-18.62c0-8.98-4.66-18.29-14.3-18.29s-14.43,8.91-14.43,18.69Z" />
  <path class="cls-2"
    d="M533.83,140.1v-44.82h6.38l14.3,22.68c3.26,5.25,5.92,9.97,7.98,14.56l.2-.07c-.53-5.98-.66-11.44-.66-18.42v-18.75h5.45v44.82h-5.85l-14.23-22.74c-3.13-4.99-6.12-10.11-8.31-14.96l-.2.07c.33,5.65.4,11.04.4,18.49v19.15h-5.45Z" />
  <path class="cls-2"
    d="M584.85,126l-4.65,14.1h-5.99l15.3-44.82h6.92l15.3,44.82h-6.19l-4.79-14.1h-15.89ZM599.62,121.48l-4.46-12.9c-1-2.93-1.66-5.59-2.33-8.18h-.13c-.66,2.59-1.33,5.39-2.26,8.11l-4.39,12.97h13.57Z" />
  <path class="cls-2"
    d="M648.58,138.7c-2.06,1.06-6.38,2.13-11.84,2.13-12.64,0-22.08-7.98-22.08-22.75s9.51-23.54,23.41-23.54c5.52,0,9.11,1.2,10.64,2l-1.46,4.72c-2.13-1.06-5.25-1.86-8.98-1.86-10.51,0-17.49,6.72-17.49,18.49,0,11.04,6.32,18.02,17.16,18.02,3.59,0,7.18-.73,9.51-1.86l1.13,4.65Z" />
  <path class="cls-2" d="M661.69,95.28v44.82h-5.85v-44.82h5.85Z" />
  <path class="cls-2"
    d="M710.11,117.22c0,15.36-9.38,23.61-20.82,23.61s-20.15-9.24-20.15-22.81c0-14.23,8.78-23.54,20.75-23.54s20.22,9.38,20.22,22.74ZM675.26,117.89c0,9.64,5.19,18.22,14.36,18.22s14.37-8.45,14.37-18.62c0-8.98-4.66-18.29-14.3-18.29s-14.43,8.91-14.43,18.69Z" />
  <path class="cls-2"
    d="M717.63,140.1v-44.82h6.38l14.3,22.68c3.26,5.25,5.92,9.97,7.98,14.56l.2-.07c-.53-5.98-.66-11.44-.66-18.42v-18.75h5.45v44.82h-5.85l-14.23-22.74c-3.12-4.99-6.12-10.11-8.31-14.96l-.2.07c.33,5.65.4,11.04.4,18.49v19.15h-5.45Z" />
  <path class="cls-2"
    d="M768.65,126l-4.65,14.1h-5.99l15.3-44.82h6.92l15.29,44.82h-6.18l-4.79-14.1h-15.89ZM783.42,121.48l-4.46-12.9c-1-2.93-1.66-5.59-2.33-8.18h-.13c-.66,2.59-1.33,5.39-2.26,8.11l-4.39,12.97h13.57Z" />
  <path class="cls-2" d="M802.05,95.28h5.85v39.97h19.15v4.85h-25.01v-44.82Z" />
  <path class="cls-2"
    d="M533.83,175.77c3.52-.6,7.71-1,12.3-1,8.31,0,14.23,2,18.16,5.59,4.06,3.66,6.38,8.85,6.38,16.09s-2.33,13.3-6.45,17.43c-4.26,4.19-11.17,6.45-19.89,6.45-4.19,0-7.58-.2-10.51-.53v-44.03ZM539.62,215.41c1.46.2,3.59.27,5.85.27,12.44,0,19.09-6.91,19.09-19.02.07-10.57-5.92-17.29-18.16-17.29-2.99,0-5.25.27-6.78.6v35.45Z" />
  <path class="cls-2" d="M601.28,198.91h-17.36v16.16h19.42v4.85h-25.27v-44.82h24.27v4.86h-18.42v14.16h17.36v4.79Z" />
  <path class="cls-2"
    d="M634.08,175.1h5.85v29.99c0,11.91-5.85,15.56-13.57,15.56-2.2,0-4.79-.46-6.18-1.06l.8-4.72c1.2.46,2.93.86,4.92.86,5.19,0,8.18-2.33,8.18-11.11v-29.53Z" />
  <path class="cls-2"
    d="M655.36,175.1v26.6c0,9.98,4.46,14.23,10.44,14.23,6.58,0,10.91-4.39,10.91-14.23v-26.6h5.85v26.2c0,13.77-7.25,19.35-16.96,19.35-9.18,0-16.09-5.19-16.09-19.15v-26.4h5.85Z" />
  <path class="cls-2"
    d="M691.88,212.88c2.59,1.66,6.32,2.93,10.31,2.93,5.92,0,9.38-3.13,9.38-7.65,0-4.12-2.39-6.58-8.45-8.85-7.31-2.66-11.83-6.52-11.83-12.77,0-6.98,5.78-12.17,14.5-12.17,4.52,0,7.91,1.07,9.84,2.2l-1.6,4.72c-1.4-.86-4.39-2.13-8.45-2.13-6.12,0-8.45,3.66-8.45,6.72,0,4.19,2.73,6.25,8.91,8.65,7.58,2.93,11.37,6.58,11.37,13.17,0,6.92-5.05,12.97-15.63,12.97-4.32,0-9.05-1.33-11.44-2.92l1.53-4.85Z" />
  <path class="cls-2" d="M733.92,180.02h-13.63v-4.92h33.19v4.92h-13.7v39.9h-5.85v-39.9Z" />
  <path class="cls-2" d="M764.26,175.1v44.82h-5.85v-44.82h5.85Z" />
  <path class="cls-2"
    d="M805.7,218.46c-1.99,1.06-6.12,2.06-11.64,2.13l-1.66,2.66c2.53.46,4.66,2.26,4.66,4.92,0,3.93-3.39,5.39-6.85,5.39-1.73,0-3.52-.46-4.72-1.13l.93-2.99c1,.6,2.33.93,3.66.93,1.53,0,2.86-.6,2.86-2.06,0-1.73-2.06-2.46-5.19-2.86l2.79-5.05c-10.97-1.26-18.82-8.98-18.82-22.48s9.51-23.54,23.48-23.54c5.52,0,9.11,1.2,10.58,2l-1.4,4.72c-2.2-1.07-5.32-1.87-9.04-1.87-10.51,0-17.49,6.72-17.49,18.49,0,11.04,6.32,18.02,17.23,18.02,3.53,0,7.11-.73,9.51-1.86l1.13,4.59Z" />
  <path class="cls-2"
    d="M820.8,205.83l-4.65,14.1h-5.99l15.3-44.82h6.92l15.29,44.82h-6.18l-4.79-14.1h-15.89ZM835.57,201.3l-4.46-12.9c-1-2.93-1.66-5.59-2.33-8.18h-.13c-.66,2.59-1.33,5.39-2.26,8.11l-4.39,12.97h13.57Z" />
  <path class="cls-2"
    d="M117.25,228.18c37.42,0,53.1-7.19,53.1-7.19v-36.85s-22.34,10.84-46.48,10.84-76.17-16.17-76.66-75.25c-19.22,6.35-34.53,12.27-45.64,16.95,11.25,83.52,80.5,91.5,115.67,91.5Z" />
  <path class="cls-1"
    d="M119.65,36.26c35.02,0,50.7,14.49,50.7,14.49V11.49S158.83,0,124.49,0C79.8,0-3.48,20.04.11,119.54c.22,6.06.73,11.74,1.46,17.14,11.11-4.68,26.42-10.6,45.64-16.95v-.78c0-59.75,37.42-82.68,72.44-82.68Z" />
  <path class="cls-1" d="M174.57,11.49v76.74c28.77-5.06,60.46-9.36,95.1-12.36-25.77-29.93-61.67-60.24-95.1-64.38Z" />
  <path class="cls-2"
    d="M329.72,72.22v85.96s-12.06-8.47-32.01-43.45c-6.27-11.11-16.09-24.96-28.04-38.86-34.64,3-66.33,7.3-95.1,12.36v135.14h44.07V81.52s27.39,24.66,55.16,72.79c41.96,65.51,78.84,69.87,102.99,74.14V71.49c-14.17-.13-29.77.08-47.08.73Z" />
  <path class="cls-1" d="M329.72,3.65v68.57c17.31-.65,32.91-.87,47.08-.73V3.65h-47.08Z" />
  <path class="cls-2"
    d="M426.41,169.05s-.62,28.99-45.89,19.93v39.8s13.28,3.03,30.77,3.03,62.19-12.06,62.19-62.76v-86.55c-11.41-3.41-26.66-6.43-47.07-8.44v94.99Z" />
  <path class="cls-1" d="M426.41,3.65v70.41c20.41,2,35.67,5.03,47.07,8.44V3.65h-47.07Z" />
</svg>
