<?xml version="1.0" encoding="UTF-8"?><svg xmlns="http://www.w3.org/2000/svg" viewBox="0 0 263.89 134.36"><defs><style>.d{fill:#1d1d1b;fill-rule:evenodd;}</style></defs><g id="a"/><g id="b"><g id="c"><g><g><path class="d" d="M130.59,35.04V12.46l-10.9,10.47v9.78c0,8.17-6.62,14.79-14.8,14.79h-10.8l-2.43,2.34h24.14c8.17,0,14.79-6.62,14.79-14.8Z"/><path class="d" d="M133.7,55.29v22.58l10.9-10.46v-9.78c0-8.17,6.62-14.79,14.79-14.79h10.8l2.43-2.34h-24.14c-8.17,0-14.8,6.62-14.8,14.8Z"/><path class="d" d="M133.7,0V22.58c0,8.17,6.62,14.8,14.8,14.8h24.14l-10.54-10.12h-11.26c-7.74,0-14.02-6.28-14.02-14.02V2.99l-3.11-2.99Z"/><path class="d" d="M130.59,90.33v-22.58c0-8.17-6.62-14.8-14.79-14.8h-24.14l10.54,10.12h11.26c7.74,0,14.02,6.28,14.02,14.02v10.25l3.11,2.99Z"/></g><path class="d" d="M88.59,129.04l-.13,.9c.1,0,.2-.01,.31-.01,.53,0,1,.16,1.39,.52,.38,.35,.56,.8,.56,1.32,0,.78-.37,1.4-.99,1.87-.76,.58-1.76,.73-2.68,.73s-1.76-.15-2.59-.47l-.2-.08,.47-1.45,.21,.07c.56,.17,1.15,.29,1.74,.29,.41,0,1.11-.02,1.46-.24,.19-.12,.35-.28,.35-.51,0-.12-.08-.2-.17-.27-.15-.12-.35-.15-.54-.15-.32,0-.7,.07-1.01,.13l-.31,.06,.37-2.8c-2.68-.31-5.02-1.39-6.96-3.28-2.4-2.33-3.48-5.14-3.48-8.47s1.08-6.13,3.48-8.47c2.4-2.34,5.35-3.38,8.69-3.38,1.98,0,3.91,.37,5.7,1.25,1.68,.82,3.08,1.99,4.18,3.51l.13,.18-2.1,1.61-.14-.18c-.91-1.19-2.03-2.14-3.39-2.78-1.37-.66-2.83-.95-4.35-.95-1.71,0-3.31,.4-4.8,1.24-1.43,.81-2.59,1.91-3.41,3.33-.83,1.43-1.21,2.99-1.21,4.64s.39,3.21,1.21,4.64c.82,1.43,1.98,2.53,3.41,3.33,1.49,.84,3.09,1.24,4.8,1.24,1.52,0,2.98-.29,4.35-.95,1.35-.65,2.47-1.6,3.39-2.79l.14-.18,2.1,1.61-.13,.18c-1.09,1.52-2.5,2.68-4.18,3.51-1.78,.87-3.69,1.26-5.67,1.25h0Zm47.77-20.51v6.47h8.88v2.62h-8.88v10.86h-2.66v-22.58h11.54v2.63h-8.88Zm-119.02-2.63h2.66v13.59c0,.64,0,1.28,.02,1.92,0,.33,.02,.69,.06,1.01,.1,.73,.31,1.47,.73,2.09,.9,1.32,2.52,1.93,4.07,1.93s3.18-.61,4.07-1.93c.42-.62,.63-1.36,.73-2.09,.04-.32,.05-.68,.06-1.01,.02-.64,.02-1.28,.02-1.92v-13.59h2.66v13.59c0,1.36-.01,3.43-.42,4.73-.46,1.48-1.36,2.64-2.65,3.5-1.35,.9-2.87,1.31-4.49,1.31s-3.14-.41-4.49-1.31c-1.29-.86-2.19-2.02-2.65-3.5-.41-1.3-.42-3.37-.42-4.73v-13.59h0Zm52.14,0h2.66v22.58h-2.66v-22.58h0Zm83.53,2.63v6.47h10.38v2.62h-10.38v8.23h10.38v2.63h-13.04v-22.58h13.04v2.63h-10.38Zm41.52,0v6.47h10.38v2.62h-10.38v8.23h10.38v2.63h-13.04v-22.58h13.04v2.63h-10.38Zm60.86,17.37h8.5v2.58h-11.18v-22.58h2.68v20h0ZM8.71,105.9h2.67v15.17c0,1.39-.04,3.58-.55,4.87-.38,.95-1.01,1.7-1.87,2.26-.95,.61-2.03,.84-3.15,.84-.94,0-1.85-.19-2.72-.53-1.15-.46-2.15-1.21-3.1-1.99l1.41-2.12c.96,.67,1.95,1.36,3.02,1.83,.44,.19,.9,.31,1.38,.31,.59,0,1.12-.17,1.59-.52,.49-.36,.82-.83,1-1.41,.3-.93,.3-2.63,.3-3.6v-15.09h0Zm27.04,18.15l2.26-1.36,.11,.21c.9,1.65,2.32,3.53,4.4,3.53,.7,0,1.36-.16,1.98-.49,.58-.31,1.07-.73,1.4-1.31,.31-.54,.48-1.11,.48-1.74,0-.76-.28-1.44-.71-2.05-.91-1.28-2.49-2.56-3.74-3.5-.77-.58-1.53-1.18-2.26-1.81-.42-.37-.9-.81-1.23-1.26-.77-1.05-1.21-2.21-1.21-3.52,0-.98,.22-1.9,.72-2.75,.49-.84,1.18-1.49,2.04-1.96,.88-.48,1.83-.71,2.83-.71,1.08,0,2.1,.27,3.04,.8,1.16,.66,2.17,1.85,2.95,2.91l.13,.18-2.16,1.64-.14-.18c-.52-.69-1.31-1.67-2.07-2.12-.55-.33-1.16-.5-1.8-.5-.77,0-1.47,.21-2.04,.75-.52,.5-.78,1.11-.78,1.84,0,.46,.09,.89,.28,1.31,.24,.52,.64,1.01,1.05,1.41,.27,.26,.62,.52,.91,.75,.63,.49,1.28,.97,1.92,1.44,1.38,1.02,3.06,2.39,4,3.84,.67,1.04,1.11,2.19,1.11,3.44,0,1.71-.67,3.15-1.9,4.34-1.28,1.24-2.82,1.84-4.6,1.84-1.37,0-2.63-.36-3.78-1.11-1.33-.88-2.34-2.31-3.1-3.68l-.1-.19h0Zm24.51-15.55v19.98h-2.66v-19.98h-4.96v-2.6h12.59v2.6h-4.96Zm153.35,9.69h-.93v10.29h-2.66v-22.58h4.63c1.03,0,2.08,.01,3.11,.08,.63,.04,1.32,.09,1.94,.23,1.33,.3,2.45,.96,3.33,2.01,1.73,2.08,1.73,5.58,0,7.66-.87,1.05-2,1.7-3.33,2.01-.85,.2-1.9,.25-2.83,.28l7.99,10.32h-3.31l-7.94-10.29h0Zm-.93-9.67v7.06h3.67c.91,0,2.31-.03,3.17-.38,.62-.25,1.11-.66,1.48-1.22,.75-1.14,.75-2.73,0-3.87-.37-.56-.86-.97-1.48-1.22-.86-.34-2.25-.37-3.17-.37h-3.67Zm-44.18,19.97v-22.58h7.27c2.12,0,4.63,.22,6.53,1.23,1.66,.87,2.9,2.2,3.82,3.82,1.05,1.84,1.48,4.14,1.48,6.24s-.43,4.4-1.48,6.24c-.92,1.62-2.17,2.95-3.82,3.82-1.91,1-4.41,1.23-6.53,1.23h-7.27Zm2.57-20.05v17.51h2.33c1.28,0,2.58-.03,3.86-.14,.79-.07,1.68-.18,2.43-.42,1.59-.52,2.87-1.45,3.81-2.83,1.02-1.51,1.41-3.56,1.41-5.36s-.4-3.85-1.41-5.35c-.94-1.39-2.22-2.32-3.81-2.83-.75-.24-1.65-.35-2.43-.42-1.28-.12-2.58-.14-3.86-.14h-2.33Zm-55.26,12.76h-9.2l-3.48,7.28h-2.87l10.53-22.58h.83l10.53,22.58h-2.87l-3.48-7.28h0Zm-1.19-2.58l-3.41-7.27-3.41,7.27h6.82Zm128.33,2.58h-9.2l-3.48,7.28h-2.87l10.53-22.58h.83l10.53,22.58h-2.87l-3.48-7.28h0Zm-1.19-2.58l-3.41-7.27-3.41,7.27h6.82Z"/></g></g></g></svg>