<svg xmlns="http://www.w3.org/2000/svg">
  <symbol id="ic-atrasados" viewBox="0 0 118.22 115.55">
    <defs>
      <style>.d{fill:#f6f6f6;}.e{fill:#fff;}.f{fill:#d1d1d1;}.g{fill:#386767;}.h{fill:#343565;fill-rule:evenodd;}</style>
    </defs>
    <g id="a"></g>
    <g id="b">
      <g id="c">
        <g>
          <g>
            <path class="f" d="M83.69,19.01c6.34,.11,12.5,1.06,18.24,3.98,4.39,2.24,7.61,5.64,9.43,10.17,1.57,3.92,1.6,8.07,.69,12.19-1.25,5.65-3.87,10.68-7.26,15.32-4.68,6.42-10.37,11.81-16.7,16.6-5.57,4.21-11.52,7.77-17.73,10.94-.38,.2-1.01,.29-.99,.85,.02,.54,.64,.6,1.04,.8,2.52,1.28,5.05,2.54,7.58,3.8,.62,.31,1.21,.67,1.39,1.38,.23,.88,.3,1.78-.45,2.48-.72,.66-1.52,.38-2.25,.01-3.92-1.96-7.84-3.94-11.75-5.91-.23-.11-.44-.25-.67-.35-3.11-1.4-2.79-.88-1.73-4.21,1.24-3.89,2.36-7.83,3.54-11.74,.3-1.01,.62-2.01,.98-3,.27-.75,.73-1.41,1.63-1.33,.94,.08,1.49,.68,1.74,1.59,.26,.95-.04,1.84-.3,2.72-.82,2.7-1.68,5.39-2.51,8.09-.11,.35-.38,.76-.03,1.06,.37,.32,.7-.1,1.01-.25,8.63-4.19,16.46-9.54,23.61-15.93,5.82-5.2,10.77-11.07,14.16-18.11,2.09-4.35,3.32-8.95,2.08-13.85-1.16-4.58-4.19-7.64-8.29-9.65-4.06-1.99-8.44-2.82-12.95-3.1-8.53-.52-16.82,.85-24.96,3.15-6.41,1.81-12.56,4.37-18.52,7.39-4.11,2.08-8.11,4.34-11.91,6.91-3.59,2.43-7.04,5.06-10.29,7.96-4.31,3.83-8.21,8.01-11.46,12.77-2.9,4.25-5.19,8.79-5.89,13.97-.3,2.2-.18,4.37,.47,6.5,.26,.84,.51,1.7,.4,2.61-.15,1.28-1.34,1.85-2.42,1.14-.73-.48-1.14-1.16-1.38-2.03-1.84-6.53-.58-12.67,2.2-18.65,2.45-5.25,5.89-9.81,9.77-14.07,5.43-5.97,11.75-10.82,18.48-15.22,6.06-3.96,12.5-7.2,19.17-9.92,8.3-3.39,16.92-5.76,25.87-6.71,2.3-.24,4.62-.51,6.95-.34Z"></path>
            <g>
              <rect class="d" x="4.28" y="53.67" width="45.18" height="57.85"></rect>
              <path class="g" d="M0,110.92V54.28c.85-2.19,2.45-3.62,4.55-4.55H50.03c.27,.36,.71,.43,1.07,.64,2.04,1.18,3.53,2.81,3.53,5.29,.03,17.98,.01,35.96,.02,53.94,0,.59-.08,1.15-.32,1.72-1.24,2.86-3.39,4.25-6.51,4.25-13.63-.01-27.27,0-40.9,0-3.47,0-5.57-1.4-6.92-4.63ZM27.31,55.89c-6.44,0-12.88,0-19.32,0-1.51,0-1.83,.29-1.84,1.73-.02,3.33,.01,6.66-.02,9.98,0,1.2,.55,1.64,1.7,1.64,12.92-.01,25.84-.02,38.77,0,1.12,0,1.59-.41,1.57-1.56-.04-3.33-.01-6.66-.02-9.98,0-1.71-.09-1.8-1.78-1.8-6.36,0-12.71,0-19.07,0Zm-.12,28.17h0c.92,0,1.85,0,2.77,0,1.02,0,1.58-.53,1.59-1.55,.02-1.72,.03-3.45,0-5.17-.02-1.03-.59-1.69-1.64-1.72-1.76-.05-3.53-.08-5.29,.01-1.08,.05-1.78,.67-1.78,1.87,0,1.56-.02,3.11,0,4.67,.03,1.38,.52,1.85,1.94,1.89,.8,.02,1.6,0,2.39,0Zm.03,12.63c.84,0,1.68-.04,2.52,.01,1.24,.08,1.8-.53,1.82-1.7,.02-1.64,.01-3.28,0-4.92,0-1.13-.63-1.77-1.69-1.81-1.76-.07-3.53-.08-5.29,.02-.92,.05-1.72,.52-1.73,1.65-.01,1.72-.04,3.45,.01,5.17,.03,1.04,.59,1.62,1.7,1.58,.88-.03,1.77,0,2.65,0Zm16-12.64h0c.76,0,1.51,0,2.27,0,.08,0,.17,0,.25,0,1.41-.06,1.9-.52,1.92-1.91,.03-1.47,.02-2.94,0-4.41-.01-1.44-.62-2.1-2.03-2.14-1.59-.04-3.19-.02-4.78,0-1.16,0-1.84,.61-1.88,1.76-.06,1.72-.04,3.44,0,5.16,.02,1,.59,1.54,1.61,1.54,.88,0,1.76,0,2.64,0Zm.07,12.64c.88,0,1.76-.02,2.64,0,1.18,.03,1.7-.61,1.72-1.69,.03-1.64,0-3.28,.02-4.92,0-1.08-.61-1.74-1.57-1.8-1.84-.11-3.69-.09-5.53,0-1,.04-1.61,.68-1.62,1.74-.01,1.68-.03,3.36,.01,5.04,.02,1.05,.59,1.62,1.68,1.63,.88,0,1.76,0,2.64,0Zm-32.07-12.65v.02c.84,0,1.68-.02,2.53,0,1.22,.03,1.81-.62,1.84-1.76,.05-1.64,.06-3.29,0-4.93-.04-1.08-.69-1.73-1.77-1.76-1.68-.05-3.37-.05-5.05,0-1.14,.03-1.81,.7-1.84,1.84-.05,1.68-.04,3.37,0,5.05,.02,.94,.58,1.48,1.52,1.53,.92,.04,1.85,0,2.78,0Zm-.09,12.65c.88,0,1.77,0,2.65,0,1.19,0,1.8-.64,1.83-1.79,.04-1.56,.01-3.11,0-4.67,0-1.23-.69-1.91-1.85-1.96-1.68-.08-3.36-.07-5.04,0-1.02,.05-1.78,.57-1.8,1.72-.02,1.68-.06,3.37,.01,5.05,.04,1.06,.63,1.7,1.8,1.65,.8-.03,1.6,0,2.4,0Zm16.2,4.4h0c-1.01,0-2.02-.02-3.02,.02-.89,.03-1.42,.53-1.43,1.43-.02,1.72-.04,3.45,0,5.17,.03,1.01,.54,1.64,1.66,1.63,1.81-.02,3.61-.02,5.42,0,.99,0,1.54-.52,1.57-1.43,.07-1.8,.06-3.61,.02-5.42-.02-.88-.52-1.39-1.45-1.39-.92,0-1.85,0-2.77,0Zm15.95,8.24c.88,0,1.76-.02,2.64,0,1.17,.04,1.72-.59,1.74-1.68,.04-1.68,.02-3.36,0-5.04,0-.97-.53-1.5-1.48-1.51-1.93-.03-3.86-.01-5.79-.01-.87,0-1.38,.48-1.4,1.3-.05,1.8-.06,3.61,.02,5.41,.04,1,.62,1.6,1.74,1.54,.84-.05,1.68,0,2.52-.01Zm-32.07,0h0c.84,0,1.69-.04,2.52,.02,1.17,.08,1.79-.51,1.84-1.58,.08-1.72,.08-3.45,.02-5.18-.03-.9-.59-1.48-1.56-1.48-1.85-.01-3.7-.02-5.55,0-.95,.01-1.51,.58-1.54,1.5-.05,1.73-.05,3.45,0,5.18,.03,.96,.55,1.56,1.61,1.55,.88-.01,1.77,0,2.65,0Z"></path>
            </g>
          </g>
          <g>
            <circle class="e" cx="98.69" cy="18.79" r="17.68"></circle>
            <path class="h" d="M99.02,0c10.61,0,19.2,8.6,19.2,19.19s-8.6,19.2-19.2,19.2-19.19-8.6-19.19-19.2S88.43,0,99.02,0h0Zm-.62,30.97v-2.33c-1.17-.15-2.12-.42-2.86-.79-.73-.39-1.36-.99-1.89-1.82-.54-.85-.84-1.87-.93-3.09l2.33-.45c.19,1.27,.51,2.2,.97,2.78,.65,.83,1.44,1.3,2.37,1.39v-7.34c-.97-.25-1.95-.66-2.95-1.22-.74-.42-1.31-.99-1.72-1.73-.4-.74-.6-1.58-.6-2.5,0-1.67,.59-3.01,1.76-4.05,.79-.7,1.96-1.13,3.51-1.28v-1.11h1.38v1.11c1.36,.14,2.43,.54,3.23,1.21,1,.85,1.62,2.03,1.82,3.51l-2.4,.37c-.12-.93-.42-1.64-.85-2.13-.45-.49-1.04-.82-1.81-.97v6.74c1.17,.31,1.96,.54,2.33,.71,.73,.31,1.31,.7,1.78,1.16,.46,.46,.82,1,1.07,1.64,.23,.63,.36,1.31,.36,2.06,0,1.62-.51,2.97-1.53,4.05-1.04,1.08-2.37,1.67-4,1.75v2.37h-1.38Zm0-20.5c-.91,.14-1.62,.51-2.15,1.1-.53,.59-.79,1.28-.79,2.1s.23,1.47,.66,1.99c.45,.54,1.21,.94,2.27,1.22v-6.42Zm1.38,16.19c.91-.11,1.67-.51,2.26-1.17,.59-.68,.88-1.51,.88-2.52,0-.85-.2-1.53-.62-2.04-.43-.51-1.27-.93-2.52-1.25v6.99Zm-.76-22.15c8.12,0,14.7,6.57,14.7,14.69s-6.59,14.7-14.7,14.7-14.69-6.59-14.69-14.7,6.57-14.69,14.69-14.69h0Z"></path>
          </g>
        </g>
      </g>
    </g>
  </symbol>
  <symbol id="ic-rvt" viewBox="0 0 112.66 124.33">
    <defs>
      <style>.e{fill:#f6f6f6;}.f{fill:#d1d1d1;}.g{fill:#386767;}.h{fill:#343565;}</style>
    </defs>
    <g id="a"></g>
    <g id="b">
      <g id="c">
        <g>
          <path class="f" d="M83.69,27.78c6.34,.11,12.5,1.06,18.24,3.98,4.39,2.24,7.61,5.64,9.43,10.17,1.57,3.92,1.6,8.07,.69,12.19-1.25,5.65-3.87,10.68-7.26,15.32-4.68,6.42-10.37,11.81-16.7,16.6-5.57,4.21-11.52,7.77-17.73,10.94-.38,.2-1.01,.29-.99,.85,.02,.54,.64,.6,1.04,.8,2.52,1.28,5.05,2.54,7.58,3.8,.62,.31,1.21,.67,1.39,1.38,.23,.88,.3,1.78-.45,2.48-.72,.66-1.52,.38-2.25,.01-3.92-1.96-7.84-3.94-11.75-5.91-.23-.11-.44-.25-.67-.35-3.11-1.4-2.79-.88-1.73-4.21,1.24-3.89,2.36-7.83,3.54-11.74,.3-1.01,.62-2.01,.98-3,.27-.75,.73-1.41,1.63-1.33,.94,.08,1.49,.68,1.74,1.59,.26,.95-.04,1.84-.3,2.72-.82,2.7-1.68,5.39-2.51,8.09-.11,.35-.38,.76-.03,1.06,.37,.32,.7-.1,1.01-.25,8.63-4.19,16.46-9.54,23.61-15.93,5.82-5.2,10.77-11.07,14.16-18.11,2.09-4.35,3.32-8.95,2.08-13.85-1.16-4.58-4.19-7.64-8.29-9.65-4.06-1.99-8.44-2.82-12.95-3.1-8.53-.52-16.82,.85-24.96,3.15-6.41,1.81-12.56,4.37-18.52,7.39-4.11,2.08-8.11,4.34-11.91,6.91-3.59,2.43-7.04,5.06-10.29,7.96-4.31,3.83-8.21,8.01-11.46,12.77-2.9,4.25-5.19,8.79-5.89,13.97-.3,2.2-.18,4.37,.47,6.5,.26,.84,.51,1.7,.4,2.61-.15,1.28-1.34,1.85-2.42,1.14-.73-.48-1.14-1.16-1.38-2.03-1.84-6.53-.58-12.67,2.2-18.65,2.45-5.25,5.89-9.81,9.77-14.07,5.43-5.97,11.75-10.82,18.48-15.22,6.06-3.96,12.5-7.2,19.17-9.92,8.3-3.39,16.92-5.76,25.87-6.71,2.3-.24,4.62-.51,6.95-.34Z"></path>
          <g>
            <rect class="e" x="4.28" y="62.44" width="45.18" height="57.85"></rect>
            <path class="g" d="M0,119.69V63.05c.85-2.19,2.45-3.62,4.55-4.55H50.03c.27,.36,.71,.43,1.07,.64,2.04,1.18,3.53,2.81,3.53,5.29,.03,17.98,.01,35.96,.02,53.94,0,.59-.08,1.15-.32,1.72-1.24,2.86-3.39,4.25-6.51,4.25-13.63-.01-27.27,0-40.9,0-3.47,0-5.57-1.4-6.92-4.63Zm27.31-55.04c-6.44,0-12.88,0-19.32,0-1.51,0-1.83,.29-1.84,1.73-.02,3.33,.01,6.66-.02,9.98,0,1.2,.55,1.64,1.7,1.64,12.92-.01,25.84-.02,38.77,0,1.12,0,1.59-.41,1.57-1.56-.04-3.33-.01-6.66-.02-9.98,0-1.71-.09-1.8-1.78-1.8-6.36,0-12.71,0-19.07,0Zm-.12,28.17h0c.92,0,1.85,0,2.77,0,1.02,0,1.58-.53,1.59-1.55,.02-1.72,.03-3.45,0-5.17-.02-1.03-.59-1.69-1.64-1.72-1.76-.05-3.53-.08-5.29,.01-1.08,.05-1.78,.67-1.78,1.87,0,1.56-.02,3.11,0,4.67,.03,1.38,.52,1.85,1.94,1.89,.8,.02,1.6,0,2.39,0Zm.03,12.63c.84,0,1.68-.04,2.52,.01,1.24,.08,1.8-.53,1.82-1.7,.02-1.64,.01-3.28,0-4.92,0-1.13-.63-1.77-1.69-1.81-1.76-.07-3.53-.08-5.29,.02-.92,.05-1.72,.52-1.73,1.65-.01,1.72-.04,3.45,.01,5.17,.03,1.04,.59,1.62,1.7,1.58,.88-.03,1.77,0,2.65,0Zm16-12.64h0c.76,0,1.51,0,2.27,0,.08,0,.17,0,.25,0,1.41-.06,1.9-.52,1.92-1.91,.03-1.47,.02-2.94,0-4.41-.01-1.44-.62-2.1-2.03-2.14-1.59-.04-3.19-.02-4.78,0-1.16,0-1.84,.61-1.88,1.76-.06,1.72-.04,3.44,0,5.16,.02,1,.59,1.54,1.61,1.54,.88,0,1.76,0,2.64,0Zm.07,12.64c.88,0,1.76-.02,2.64,0,1.18,.03,1.7-.61,1.72-1.69,.03-1.64,0-3.28,.02-4.92,0-1.08-.61-1.74-1.57-1.8-1.84-.11-3.69-.09-5.53,0-1,.04-1.61,.68-1.62,1.74-.01,1.68-.03,3.36,.01,5.04,.02,1.05,.59,1.62,1.68,1.63,.88,0,1.76,0,2.64,0Zm-32.07-12.65v.02c.84,0,1.68-.02,2.53,0,1.22,.03,1.81-.62,1.84-1.76,.05-1.64,.06-3.29,0-4.93-.04-1.08-.69-1.73-1.77-1.76-1.68-.05-3.37-.05-5.05,0-1.14,.03-1.81,.7-1.84,1.84-.05,1.68-.04,3.37,0,5.05,.02,.94,.58,1.48,1.52,1.53,.92,.04,1.85,0,2.78,0Zm-.09,12.65c.88,0,1.77,0,2.65,0,1.19,0,1.8-.64,1.83-1.79,.04-1.56,.01-3.11,0-4.67,0-1.23-.69-1.91-1.85-1.96-1.68-.08-3.36-.07-5.04,0-1.02,.05-1.78,.57-1.8,1.72-.02,1.68-.06,3.37,.01,5.05,.04,1.06,.63,1.7,1.8,1.65,.8-.03,1.6,0,2.4,0Zm16.2,4.4h0c-1.01,0-2.02-.02-3.02,.02-.89,.03-1.42,.53-1.43,1.43-.02,1.72-.04,3.45,0,5.17,.03,1.01,.54,1.64,1.66,1.63,1.81-.02,3.61-.02,5.42,0,.99,0,1.54-.52,1.57-1.43,.07-1.8,.06-3.61,.02-5.42-.02-.88-.52-1.39-1.45-1.39-.92,0-1.85,0-2.77,0Zm15.95,8.24c.88,0,1.76-.02,2.64,0,1.17,.04,1.72-.59,1.74-1.68,.04-1.68,.02-3.36,0-5.04,0-.97-.53-1.5-1.48-1.51-1.93-.03-3.86-.01-5.79-.01-.87,0-1.38,.48-1.4,1.3-.05,1.8-.06,3.61,.02,5.41,.04,1,.62,1.6,1.74,1.54,.84-.05,1.68,0,2.52-.01Zm-32.07,0h0c.84,0,1.69-.04,2.52,.02,1.17,.08,1.79-.51,1.84-1.58,.08-1.72,.08-3.45,.02-5.18-.03-.9-.59-1.48-1.56-1.48-1.85-.01-3.7-.02-5.55,0-.95,.01-1.51,.58-1.54,1.5-.05,1.73-.05,3.45,0,5.18,.03,.96,.55,1.56,1.61,1.55,.88-.01,1.77,0,2.65,0Z"></path>
          </g>
          <g id="d">
            <g>
              <path class="h" d="M99.33,43.71h-1.03c-.07-.19-.22-.4-.19-.58,.17-1.27-.48-1.76-1.62-2.14-1.62-.54-2.38-1.98-2.35-3.72,.02-.91,.46-1.21,1.28-1.2,.81,0,1.64-.06,1.7,1.1,.02,.44,.01,.9,.35,1.25,.09,.09,.22,.2,.34,.2,.22,0,.21-.21,.24-.38,.42-2.13,.01-3.04-1.84-4.11-.12-.07-.24-.14-.35-.21-1.17-.69-1.7-1.73-1.71-3.07-.02-1.94,.88-3.1,3.02-3.89,.86-.31,1.17-1.17,.85-2.39-.23-.89-.95-.75-1.58-.73-.61,.02-.89,.41-.97,1-.05,.37-.25,.66-.67,.64-.47-.03-.61-.38-.64-.79-.05-.58,.13-1.1,.52-1.51,.37-.39,.45-.8,.29-1.31-.75-2.35-1.48-4.71-2.24-7.06-.13-.39-.19-1.07-.71-.98-.56,.1-.29,.75-.29,1.15-.01,8.51-.02,17.01,0,25.52,0,1.3-.21,2.47-1.42,3.2h-1.85c-.97-.6-1.31-1.5-1.3-2.62,.03-3.09,0-6.17,0-9.26,0-1.51,0-3.02,0-4.53,0-.43,.09-1.01-.57-.99-.64,.02-.54,.59-.57,1.02-.02,.27,0,.55,0,.82,0,4.11-.02,8.23,.01,12.34,.01,1.27-.24,2.38-1.26,3.21h-2.05c-.98-.7-1.29-1.67-1.29-2.86,.02-8.57,.01-17.14,0-25.71,0-.38-.01-.75-.04-1.13-.01-.18-.1-.34-.31-.35-.21-.01-.3,.15-.33,.33-.03,.27-.04,.55-.04,.82,0,2.54,0,5.07,0,7.61,0,.41-.02,.83-.13,1.22-.23,.78-.79,1.22-1.6,1.16-.8-.05-1.32-.52-1.46-1.34-.05-.3-.1-.61-.1-.92,0-3.32-.14-6.65,.09-9.97,.18-2.62,1.92-4.28,4.56-4.31,2.8-.04,5.61-.03,8.41,0,2.12,.03,3.76,1,4.48,3,1.19,3.28,2.18,6.64,3.27,9.96,.15,.47-.23,1.11,.15,1.38,1.19,.87,1.02,2.08,1.01,3.27,0,.57,.22,.88,.79,1,1.69,.36,2.79,1.37,3.25,3.06v1.44c-.73,.55-1.55,.48-2.35,.3-.72-.16-.49-.88-.67-1.36-.09-.25-.22-.51-.41-.69-.2-.2-.42-.15-.56,.14-.51,1.06,.13,3.09,1.18,3.7,1.31,.77,2.64,1.5,2.82,3.26v1.24c-.22,1.45-.92,2.68-2.35,3.04-1.47,.37-1.89,1.17-1.73,2.53,0,.07-.01,.13-.02,.2Z"></path>
              <path class="h" d="M86.55,0c2.09,0,3.61,1.58,3.61,3.75,0,2.09-1.66,3.78-3.67,3.74-1.97-.04-3.59-1.72-3.62-3.74C82.85,1.73,84.54,0,86.55,0Z"></path>
            </g>
          </g>
        </g>
      </g>
    </g>
  </symbol>
  <symbol id="ic-tc" viewBox="0 0 112.66 114.71">
    <defs>
      <style>.d{fill:#f6f6f6;}.e{fill:#fff;}.f{fill:#d1d1d1;}.g{fill:#386767;}.h{fill:#343565;}</style>
    </defs>
    <g id="a"></g>
    <g id="b">
      <g id="c">
        <g>
          <path class="f" d="M83.69,18.16c6.34,.11,12.5,1.06,18.24,3.98,4.39,2.24,7.61,5.64,9.43,10.17,1.57,3.92,1.6,8.07,.69,12.19-1.25,5.65-3.87,10.68-7.26,15.32-4.68,6.42-10.37,11.81-16.7,16.6-5.57,4.21-11.52,7.77-17.73,10.94-.38,.2-1.01,.29-.99,.85,.02,.54,.64,.6,1.04,.8,2.52,1.28,5.05,2.54,7.58,3.8,.62,.31,1.21,.67,1.39,1.38,.23,.88,.3,1.78-.45,2.48-.72,.66-1.52,.38-2.25,.01-3.92-1.96-7.84-3.94-11.75-5.91-.23-.11-.44-.25-.67-.35-3.11-1.4-2.79-.88-1.73-4.21,1.24-3.89,2.36-7.83,3.54-11.74,.3-1.01,.62-2.01,.98-3,.27-.75,.73-1.41,1.63-1.33,.94,.08,1.49,.68,1.74,1.59,.26,.95-.04,1.84-.3,2.72-.82,2.7-1.68,5.39-2.51,8.09-.11,.35-.38,.76-.03,1.06,.37,.32,.7-.1,1.01-.25,8.63-4.19,16.46-9.54,23.61-15.93,5.82-5.2,10.77-11.07,14.16-18.11,2.09-4.35,3.32-8.95,2.08-13.85-1.16-4.58-4.19-7.64-8.29-9.65-4.06-1.99-8.44-2.82-12.95-3.1-8.53-.52-16.82,.85-24.96,3.15-6.41,1.81-12.56,4.37-18.52,7.39-4.11,2.08-8.11,4.34-11.91,6.91-3.59,2.43-7.04,5.06-10.29,7.96-4.31,3.83-8.21,8.01-11.46,12.77-2.9,4.25-5.19,8.79-5.89,13.97-.3,2.2-.18,4.37,.47,6.5,.26,.84,.51,1.7,.4,2.61-.15,1.28-1.34,1.85-2.42,1.14-.73-.48-1.14-1.16-1.38-2.03-1.84-6.53-.58-12.67,2.2-18.65,2.45-5.25,5.89-9.81,9.77-14.07,5.43-5.97,11.75-10.82,18.48-15.22,6.06-3.96,12.5-7.2,19.17-9.92,8.3-3.39,16.92-5.76,25.87-6.71,2.3-.24,4.62-.51,6.95-.34Z"></path>
          <g>
            <rect class="d" x="4.28" y="52.82" width="45.18" height="57.85"></rect>
            <path class="g" d="M0,110.07V53.43c.85-2.19,2.45-3.62,4.55-4.55H50.03c.27,.36,.71,.43,1.07,.64,2.04,1.18,3.53,2.81,3.53,5.29,.03,17.98,.01,35.96,.02,53.94,0,.59-.08,1.15-.32,1.72-1.24,2.86-3.39,4.25-6.51,4.25-13.63-.01-27.27,0-40.9,0-3.47,0-5.57-1.4-6.92-4.63ZM27.31,55.04c-6.44,0-12.88,0-19.32,0-1.51,0-1.83,.29-1.84,1.73-.02,3.33,.01,6.66-.02,9.98,0,1.2,.55,1.64,1.7,1.64,12.92-.01,25.84-.02,38.77,0,1.12,0,1.59-.41,1.57-1.56-.04-3.33-.01-6.66-.02-9.98,0-1.71-.09-1.8-1.78-1.8-6.36,0-12.71,0-19.07,0Zm-.12,28.17h0c.92,0,1.85,0,2.77,0,1.02,0,1.58-.53,1.59-1.55,.02-1.72,.03-3.45,0-5.17-.02-1.03-.59-1.69-1.64-1.72-1.76-.05-3.53-.08-5.29,.01-1.08,.05-1.78,.67-1.78,1.87,0,1.56-.02,3.11,0,4.67,.03,1.38,.52,1.85,1.94,1.89,.8,.02,1.6,0,2.39,0Zm.03,12.63c.84,0,1.68-.04,2.52,.01,1.24,.08,1.8-.53,1.82-1.7,.02-1.64,.01-3.28,0-4.92,0-1.13-.63-1.77-1.69-1.81-1.76-.07-3.53-.08-5.29,.02-.92,.05-1.72,.52-1.73,1.65-.01,1.72-.04,3.45,.01,5.17,.03,1.04,.59,1.62,1.7,1.58,.88-.03,1.77,0,2.65,0Zm16-12.64h0c.76,0,1.51,0,2.27,0,.08,0,.17,0,.25,0,1.41-.06,1.9-.52,1.92-1.91,.03-1.47,.02-2.94,0-4.41-.01-1.44-.62-2.1-2.03-2.14-1.59-.04-3.19-.02-4.78,0-1.16,0-1.84,.61-1.88,1.76-.06,1.72-.04,3.44,0,5.16,.02,1,.59,1.54,1.61,1.54,.88,0,1.76,0,2.64,0Zm.07,12.64c.88,0,1.76-.02,2.64,0,1.18,.03,1.7-.61,1.72-1.69,.03-1.64,0-3.28,.02-4.92,0-1.08-.61-1.74-1.57-1.8-1.84-.11-3.69-.09-5.53,0-1,.04-1.61,.68-1.62,1.74-.01,1.68-.03,3.36,.01,5.04,.02,1.05,.59,1.62,1.68,1.63,.88,0,1.76,0,2.64,0Zm-32.07-12.65v.02c.84,0,1.68-.02,2.53,0,1.22,.03,1.81-.62,1.84-1.76,.05-1.64,.06-3.29,0-4.93-.04-1.08-.69-1.73-1.77-1.76-1.68-.05-3.37-.05-5.05,0-1.14,.03-1.81,.7-1.84,1.84-.05,1.68-.04,3.37,0,5.05,.02,.94,.58,1.48,1.52,1.53,.92,.04,1.85,0,2.78,0Zm-.09,12.65c.88,0,1.77,0,2.65,0,1.19,0,1.8-.64,1.83-1.79,.04-1.56,.01-3.11,0-4.67,0-1.23-.69-1.91-1.85-1.96-1.68-.08-3.36-.07-5.04,0-1.02,.05-1.78,.57-1.8,1.72-.02,1.68-.06,3.37,.01,5.05,.04,1.06,.63,1.7,1.8,1.65,.8-.03,1.6,0,2.4,0Zm16.2,4.4h0c-1.01,0-2.02-.02-3.02,.02-.89,.03-1.42,.53-1.43,1.43-.02,1.72-.04,3.45,0,5.17,.03,1.01,.54,1.64,1.66,1.63,1.81-.02,3.61-.02,5.42,0,.99,0,1.54-.52,1.57-1.43,.07-1.8,.06-3.61,.02-5.42-.02-.88-.52-1.39-1.45-1.39-.92,0-1.85,0-2.77,0Zm15.95,8.24c.88,0,1.76-.02,2.64,0,1.17,.04,1.72-.59,1.74-1.68,.04-1.68,.02-3.36,0-5.04,0-.97-.53-1.5-1.48-1.51-1.93-.03-3.86-.01-5.79-.01-.87,0-1.38,.48-1.4,1.3-.05,1.8-.06,3.61,.02,5.41,.04,1,.62,1.6,1.74,1.54,.84-.05,1.68,0,2.52-.01Zm-32.07,0h0c.84,0,1.69-.04,2.52,.02,1.17,.08,1.79-.51,1.84-1.58,.08-1.72,.08-3.45,.02-5.18-.03-.9-.59-1.48-1.56-1.48-1.85-.01-3.7-.02-5.55,0-.95,.01-1.51,.58-1.54,1.5-.05,1.73-.05,3.45,0,5.18,.03,.96,.55,1.56,1.61,1.55,.88-.01,1.77,0,2.65,0Z"></path>
          </g>
          <g>
            <path class="h" d="M111.4,19.8c.05,10.71-8.64,19.41-19.43,19.45-10.91,.04-19.69-8.62-19.73-19.46C72.21,8.88,80.87,.05,91.67,0c11.06-.05,19.68,8.59,19.73,19.8Zm-3.33,.52c-.67,0-1.28,.08-1.86-.03-.37-.07-.69-.4-1.04-.61,.33-.22,.63-.5,.99-.65,.24-.1,.57-.05,.85-.02,.91,.1,1.21-.36,1-1.16-.42-1.65-.88-3.29-1.35-4.93-.22-.77-.67-.72-1.31-.39-.58,.3-1.35,1.3-1.86,.46-.61-1,.83-.99,1.26-1.53,.23-.29,.58-.83,.47-.98-1.23-1.78-2.69-3.34-4.66-4.54-.4,.65-.69,1.23-1.1,1.71-.21,.25-.64,.31-.97,.46-.03-.36-.15-.75-.06-1.08,.12-.42,.47-.77,.61-1.19,.08-.24,.02-.73-.13-.81-1.98-.97-4.03-1.63-6.41-1.51,0,.72,.07,1.33-.03,1.92-.06,.31-.43,.55-.66,.83-.2-.26-.51-.51-.57-.8-.11-.62-.09-1.26-.13-2.01-2.47,.05-4.65,.62-6.79,1.85,.31,.56,.64,.99,.79,1.48,.13,.4,.06,.86,.08,1.3-.37-.22-.81-.36-1.09-.66-.37-.4-.62-.92-.97-1.47-2.09,1.31-3.67,2.92-4.97,5.01,.64,.4,1.22,.7,1.72,1.09,.23,.19,.32,.56,.47,.86-.35,.07-.75,.28-1.04,.18-.6-.21-1.13-.59-2.02-1.08-.51,1.7-1.06,3.2-1.4,4.76-.46,2.08-.38,2.07,1.65,2.29,.34,.04,.64,.42,.96,.65-.3,.21-.59,.53-.92,.6-.61,.12-1.25,.09-1.95,.12,.14,2.46,.67,4.63,1.87,6.74,.69-.37,1.27-.76,1.9-.99,.27-.1,.65,.1,.98,.16-.13,.3-.18,.7-.4,.88-.53,.42-1.15,.73-1.82,1.13,1.28,2.12,2.91,3.69,5.01,4.99,.39-.63,.68-1.22,1.09-1.7,.2-.24,.64-.28,.97-.42,.04,.33,.19,.7,.08,.98-.23,.59-.59,1.13-1.06,1.98,1.55,.51,2.94,1.03,4.37,1.41,.73,.2,1.6,.36,2.25,.12,.31-.12,.25-1.22,.35-1.88,0-.04,0-.09,.02-.12,.22-.24,.44-.48,.66-.72,.2,.26,.54,.5,.57,.79,.09,.66,.03,1.34,.03,2.1,2.36-.01,4.39-.53,6.27-1.56,.21-.12,.22-.79,.16-1.17-.11-.64-1.28-1.3-.4-1.83,.86-.52,1.1,.67,1.42,1.24,.41,.72,.82,.83,1.42,.28,.93-.85,1.9-1.67,2.77-2.57,.5-.52,1.11-1.15,1.17-1.78,.03-.35-.98-.77-1.46-1.22-.23-.21-.31-.58-.45-.88,.35-.04,.75-.21,1.05-.11,.59,.21,1.13,.58,1.77,.93,1.23-2.16,1.81-4.35,1.84-6.86Z"></path>
            <path class="e" d="M108.07,20.32c-.03,2.51-.61,4.7-1.84,6.86-.64-.35-1.18-.71-1.77-.93-.3-.11-.7,.06-1.05,.11,.15,.3,.23,.67,.45,.88,.48,.45,1.5,.87,1.46,1.22-.06,.63-.67,1.26-1.17,1.78-.88,.9-1.84,1.72-2.77,2.57-.6,.55-1.01,.44-1.42-.28-.32-.57-.56-1.76-1.42-1.24-.88,.53,.29,1.19,.4,1.83,.07,.38,.05,1.06-.16,1.17-1.88,1.03-3.91,1.55-6.27,1.56,0-.75,.06-1.43-.03-2.1-.04-.28-.37-.53-.57-.79-.22,.24-.45,.47-.66,.72-.02,.02-.01,.08-.02,.12-.11,.66-.04,1.77-.35,1.88-.65,.24-1.52,.08-2.25-.12-1.43-.38-2.82-.9-4.37-1.41,.47-.85,.83-1.39,1.06-1.98,.11-.27-.05-.65-.08-.98-.33,.13-.76,.18-.97,.42-.41,.48-.7,1.07-1.09,1.7-2.1-1.29-3.73-2.87-5.01-4.99,.67-.41,1.28-.72,1.82-1.13,.23-.18,.27-.58,.4-.88-.33-.06-.71-.27-.98-.16-.63,.24-1.21,.62-1.9,.99-1.2-2.11-1.73-4.28-1.87-6.74,.7-.03,1.34,0,1.95-.12,.33-.06,.61-.39,.92-.6-.32-.23-.62-.61-.96-.65-2.03-.21-2.1-.2-1.65-2.29,.34-1.56,.9-3.07,1.4-4.76,.89,.49,1.42,.87,2.02,1.08,.29,.1,.69-.11,1.04-.18-.15-.29-.23-.67-.47-.86-.5-.4-1.08-.69-1.72-1.09,1.3-2.08,2.88-3.7,4.97-5.01,.35,.55,.6,1.07,.97,1.47,.28,.3,.72,.45,1.09,.66-.02-.44,.05-.9-.08-1.3-.16-.49-.48-.92-.79-1.48,2.14-1.23,4.32-1.8,6.79-1.85,.04,.74,.02,1.39,.13,2.01,.05,.29,.37,.53,.57,.8,.23-.27,.6-.52,.66-.83,.11-.58,.03-1.2,.03-1.92,2.38-.12,4.44,.54,6.41,1.51,.15,.07,.21,.57,.13,.81-.14,.42-.49,.77-.61,1.19-.09,.33,.03,.72,.06,1.08,.33-.15,.76-.21,.97-.46,.41-.48,.7-1.07,1.1-1.71,1.97,1.21,3.44,2.76,4.66,4.54,.11,.15-.24,.69-.47,.98-.43,.54-1.86,.53-1.26,1.53,.51,.84,1.27-.15,1.86-.46,.64-.33,1.09-.38,1.31,.39,.47,1.64,.92,3.28,1.35,4.93,.21,.81-.1,1.26-1,1.16-.28-.03-.6-.08-.85,.02-.36,.15-.66,.43-.99,.65,.34,.21,.67,.55,1.04,.61,.58,.1,1.19,.03,1.86,.03Zm-15.56-6.32h0c0-1.02,.06-2.04-.03-3.05-.04-.42-.41-.81-.64-1.22-.21,.42-.58,.83-.6,1.26-.07,1.79,.03,3.59-.07,5.37-.03,.66-.33,1.36-.68,1.94-.47,.79-.59,1.53-.02,2.26,.59,.76,1.5,.92,2.18,.38,.84-.66,1.71-.62,2.64-.62,1.22,0,2.45,.05,3.66-.03,.34-.02,.65-.42,.97-.65-.33-.21-.66-.58-1-.6-1.42-.07-2.85-.02-4.28-.04-1.34-.01-2.13-.82-2.15-2.2-.01-.94,0-1.87,0-2.81Z"></path>
            <path class="h" d="M92.51,14c0,.94,0,1.87,0,2.81,.02,1.38,.8,2.18,2.15,2.2,1.43,.01,2.85-.03,4.28,.04,.34,.02,.67,.39,1,.6-.32,.23-.64,.63-.97,.65-1.22,.08-2.44,.03-3.66,.03-.92,0-1.79-.04-2.64,.62-.68,.53-1.59,.37-2.18-.38-.57-.73-.45-1.47,.02-2.26,.34-.58,.64-1.28,.68-1.94,.09-1.79,0-3.58,.07-5.37,.02-.43,.39-.84,.6-1.26,.22,.41,.6,.8,.64,1.22,.09,1.01,.03,2.03,.03,3.05h0Z"></path>
          </g>
        </g>
      </g>
    </g>
  </symbol>
</svg>
