<?xml version="1.0" encoding="UTF-8"?>
<svg xmlns="http://www.w3.org/2000/svg" viewBox="0 0 369.16 129.69">
  <defs>
    <style>
      .d {
        fill: #00a6d0;
      }

      .e {
        fill: #044e64;
      }

      .f {
        fill: #fff;
      }

      .g {
        fill: #80abba;
      }

      .h {
        fill: #a0c9d4;
      }

      .i {
        fill: #177f6e;
      }

      .j {
        fill: #44778b;
      }

      .k {
        fill: #88c27a;
      }

      .l {
        fill: #24a18e;
      }

      .m {
        fill: #6190a1;
      }
    </style>
  </defs>
  <g id="a" />
  <g id="b">
    <g id="c">
      <g>
        <g>
          <polygon class="k"
            points="98.01 62.26 79.07 76.89 76.45 62.26 59.37 75.45 57.02 62.26 37.42 77.39 37.42 125.41 56.86 125.41 59.72 125.41 78.41 125.41 79.16 125.41 100.71 125.41 100.71 77.39 98.01 62.26" />
          <polygon class="i"
            points="57.25 112.12 54.45 112.12 50.39 67.38 37.42 77.39 37.42 125.41 56.86 125.41 57.25 125.41 57.25 112.12" />
          <rect class="k" x="14.62" y="99.62" width="15.65" height="40.64"
            transform="translate(142.38 97.5) rotate(90)" />
          <rect class="k" x="16.67" y="27.11" width="11.55" height="28.78"
            transform="translate(63.94 19.06) rotate(90)" />
          <polygon class="k"
            points="34.08 47.28 22.26 47.28 20.5 47.28 10.8 47.28 4.92 112.12 20.5 112.12 22.26 112.12 39.96 112.12 34.08 47.28" />
          <path class="e"
            d="M98.01,62.26l2.7,15.13v48.02H37.42v-48.02l19.59-15.13,2.36,13.19,17.08-13.19,2.61,14.63,18.94-14.63m0-4.16c-1.08,0-2.14,.34-2.98,.99l-12.73,9.83-1.31-7.33c-.27-1.48-1.39-2.72-2.95-3.24-.52-.17-1.05-.26-1.58-.26-1.08,0-2.14,.34-2.98,.99l-10.87,8.39-1.05-5.89c-.27-1.48-1.39-2.72-2.95-3.24-.52-.17-1.05-.26-1.58-.26-1.08,0-2.14,.34-2.98,.99l-19.59,15.13c-1.02,.79-1.61,1.95-1.61,3.17v48.02c0,2.3,2.06,4.16,4.59,4.16h63.29c2.54,0,4.59-1.86,4.59-4.16v-48.02c0-.22-.02-.44-.06-.66l-2.7-15.13c-.27-1.48-1.39-2.72-2.95-3.24-.52-.17-1.05-.26-1.58-.26h0Z" />
          <rect class="f" x="76.97" y="89.26" width="12.77" height="22.86" />
          <polygon class="l"
            points="34.08 47.28 36.83 47.28 36.83 35.73 22.09 35.73 22.09 127.76 42.76 127.76 42.76 112.12 39.96 112.12 34.08 47.28" />
          <path class="e"
            d="M42.76,129.69H2.12c-1.17,0-2.12-.86-2.12-1.92v-15.65c0-1.06,.95-1.92,2.12-1.92H42.76c1.17,0,2.12,.86,2.12,1.92v15.65c0,1.06-.95,1.92-2.12,1.92Zm-38.52-3.84H40.64v-11.8H4.24v11.8Z" />
          <path class="e"
            d="M36.83,49.2H8.05c-1.17,0-2.12-.86-2.12-1.92v-11.55c0-1.06,.95-1.92,2.12-1.92h28.78c1.17,0,2.12,.86,2.12,1.92v11.55c0,1.06-.95,1.92-2.12,1.92Zm-26.66-3.84h24.54v-7.71H10.17v7.71Z" />
          <path class="e"
            d="M39.96,114.04H4.92c-.59,0-1.16-.22-1.56-.62-.4-.39-.6-.92-.55-1.46L8.69,47.12c.09-1,1.01-1.76,2.11-1.76h23.28c1.1,0,2.02,.77,2.11,1.76l5.88,64.84c.05,.53-.15,1.06-.55,1.46-.4,.39-.97,.62-1.56,.62Zm-32.74-3.84h30.44l-5.53-61H12.75l-5.53,61Z" />
          <rect class="f" x="54.53" y="89.26" width="12.77" height="22.86" />
          <polygon class="d" points="76.97 112.12 89.73 89.26 76.97 89.26 76.97 112.12" />
          <polygon class="d" points="54.53 112.12 67.3 89.26 54.53 89.26 54.53 112.12" />
          <path class="e"
            d="M89.73,114.04h-12.77c-1.17,0-2.12-.86-2.12-1.92v-22.86c0-1.06,.95-1.92,2.12-1.92h12.77c1.17,0,2.12,.86,2.12,1.92v22.86c0,1.06-.95,1.92-2.12,1.92Zm-10.65-3.84h8.52v-19.02h-8.52v19.02Z" />
          <path class="e"
            d="M67.3,114.04h-12.77c-1.17,0-2.12-.86-2.12-1.92v-22.86c0-1.06,.95-1.92,2.12-1.92h12.77c1.17,0,2.12,.86,2.12,1.92v22.86c0,1.06-.95,1.92-2.12,1.92Zm-10.65-3.84h8.52v-19.02h-8.52v19.02Z" />
          <g>
            <path class="d"
              d="M85.75,1.29c-8.57,0-15.76,5.8-17.61,13.54-2.54-1.59-5.55-2.52-8.79-2.52-1.18,0-2.33,.13-3.44,.36-.08-7-5.99-12.68-13.25-12.68-4.83,0-9.05,2.52-11.37,6.26-2.18-1.39-4.78-2.2-7.58-2.2-7.63,0-13.83,6-13.83,13.38s6.21,13.38,13.83,13.38c5.24,0,9.81-2.83,12.15-6.99,1.99,1.15,4.31,1.83,6.79,1.83,.23,0,.44-.02,.67-.03-.13,.78-.21,1.58-.21,2.4,0,8.66,7.28,15.7,16.23,15.7,7.26,0,13.42-4.63,15.49-11,3.04,2.23,6.82,3.55,10.91,3.55,9.97,0,18.08-7.84,18.08-17.49S95.72,1.29,85.75,1.29Zm0,30.26c-4.39,0-8.28-2.08-10.68-5.27-.94-1.37-4.35-1.44-4.39,1.13,.01,.2,.03,.4,.03,.61,0,6.07-5.09,10.99-11.36,10.99s-11.36-4.92-11.36-10.99c0-1.55,.33-3.02,.93-4.35,.44-2.43-.66-3.79-3.01-3.36-1,.4-2.09,.63-3.24,.63-2.68,0-5.06-1.22-6.6-3.11-.89-1.38-3.46-.51-3.51,1-.69,4.12-4.38,7.27-8.84,7.27-4.95,0-8.96-3.88-8.96-8.67s4.01-8.67,8.96-8.67c2.8,0,5.3,1.24,6.94,3.19,1.09,1.65,3.73,.61,3.78-.77,.78-3.7,4.17-6.48,8.22-6.48,4.63,0,8.39,3.63,8.39,8.11,0,1.11-.23,2.16-.64,3.12-.41,2.8,1.26,3.14,3.13,2.65,1.7-.99,3.69-1.56,5.82-1.56,3.84,0,7.22,1.84,9.28,4.66,1.53,1.95,4.6,.75,3.96-1.88-.03-.34-.05-.68-.05-1.02,0-7.06,5.92-12.78,13.21-12.78s13.21,5.72,13.21,12.78-5.92,12.78-13.21,12.78Z" />
            <path class="j"
              d="M29.12,16.89c-.27-.23-.68-.34-1.23-.34h-2.92v-2.65c0-.51-.12-.88-.37-1.12-.25-.24-.57-.36-.97-.36s-.73,.12-.98,.37c-.25,.25-.37,.62-.37,1.12v2.65h-2.92c-.55,0-.96,.11-1.23,.34-.27,.23-.41,.52-.41,.88s.14,.65,.42,.88c.28,.23,.69,.34,1.22,.34h2.92v2.65c0,.5,.12,.87,.37,1.12,.25,.25,.58,.37,.98,.37s.72-.13,.97-.38c.25-.25,.37-.62,.37-1.11v-2.65h2.92c.56,0,.97-.11,1.24-.34,.27-.23,.4-.52,.4-.88s-.14-.66-.41-.88Z" />
            <g>
              <path class="g"
                d="M53.72,26.08c-.54-.49-.79-1.02-.74-1.59,.04-.57,.3-1.08,.78-1.51s1.01-.64,1.64-.67c.63-.03,1.21,.19,1.74,.67,.42,.38,.63,.9,.62,1.55,0,.65-.22,1.17-.65,1.55-.46,.42-1.03,.62-1.7,.62s-1.24-.22-1.69-.63Zm10.72,6.58c-.47,.43-1.03,.65-1.67,.69-.64,.03-1.24-.2-1.78-.69-.46-.42-.7-.93-.7-1.52,0-.6,.23-1.11,.7-1.54s1.05-.65,1.72-.66,1.23,.2,1.7,.63c.54,.49,.79,1.02,.76,1.6s-.27,1.08-.73,1.49Z" />
              <path class="g"
                d="M53.46,32.92h0c-.65-.59-.68-1.52-.07-2.08l9.48-8.59c.61-.55,1.64-.52,2.29,.07h0c.65,.59,.68,1.52,.07,2.08l-9.48,8.59c-.61,.55-1.64,.52-2.29-.07Z" />
            </g>
            <path class="m"
              d="M47.44,12.04h-2.7l1.35-2.11c.31-.49,.13-1.13-.42-1.41-.54-.28-1.24-.11-1.56,.38l-1.35,2.11-1.35-2.11c-.31-.49-1.01-.66-1.56-.38-.54,.28-.73,.92-.42,1.41l1.35,2.11h-2.7c-.63,0-1.14,.46-1.14,1.03s.51,1.03,1.14,1.03h2.7l-1.35,2.11c-.31,.49-.13,1.13,.42,1.41,.54,.28,1.24,.11,1.56-.38l1.35-2.11,1.35,2.11c.31,.49,1.01,.66,1.56,.38,.54-.28,.73-.92,.42-1.41l-1.35-2.11h2.7c.63,0,1.14-.46,1.14-1.03s-.51-1.03-1.14-1.03Z" />
            <g>
              <rect class="h" x="78.18" y="13.75" width="15.66" height="3.6" rx="1.39" ry="1.39" />
              <rect class="h" x="78.18" y="20.06" width="15.66" height="3.6" rx="1.39" ry="1.39" />
            </g>
          </g>
        </g>
        <g>
          <path class="i"
            d="M135.95,60.9h-9.34V23.48h21.38c.2,1.13,.26,2.32,.26,3.16,0,2.8-1.12,3.57-4.74,3.52l-7.57-.06v9.59h10.46c.26,1.31,.33,2.5,.33,3.34,0,2.92-1.32,3.46-4.74,3.4l-6.05-.12v14.6Z" />
          <path class="i"
            d="M169.3,61.5c-2.57,0-3.68-.77-4.08-3.46-1.71,1.91-4.34,3.46-8.22,3.46-4.87,0-7.83-3.46-7.83-8.64,0-7.09,4.54-9.41,15.33-10.01,0-4.71-.33-5.9-3.88-5.9-2.5,0-5.46,1.01-7.3,1.01-2.11,0-3.09-1.43-3.16-5.36,2.83-1.19,7.5-2.26,12.37-2.26,7.7,0,10.92,2.44,10.92,10.13v20.5c-1.12,.3-2.76,.54-4.14,.54Zm-2.7-44.45c1.78,.95,3.16,2.44,3.16,3.81s-1.05,2.62-3.62,4.05c-.92,.6-5.59,2.92-7.11,3.46l-3.22-2.68,10.79-8.64Zm-6.45,38.08c1.64,0,3.09-.6,4.34-1.61v-6.02c-1.64,.12-4.87,.42-6.45,.89-.46,.89-.66,2.09-.66,3.22,0,2.2,.92,3.52,2.76,3.52Z" />
          <path class="i"
            d="M188.51,33.25c.72-.66,3.95-2.92,7.96-2.92,5.79,0,9.8,3.52,9.8,15.49,0,9.83-4.6,15.67-11.18,15.67-3.62,0-6.38-2.03-7.17-3.04-1.25,2.5-2.57,3.04-5.33,3.04-.92,0-2.3-.12-2.96-.3V21.04c.79-.24,2.63-.72,4.54-.72,3.68,0,4.34,.83,4.34,4.41v8.52Zm4.21,3.69c-1.78,0-3.88,1.25-4.14,1.37v15.25c.2,.18,2.11,1.55,4.01,1.55,1.51,0,2.7-.48,2.83-.54,.59-1.07,1.38-4.77,1.38-8.4,0-7.03-1.12-9.24-4.08-9.24Z" />
          <path class="i"
            d="M211.21,31.11c.72-.42,2.89-.77,4.41-.77,2.7,0,3.22,1.31,3.82,4.95,1.58-2.8,4.67-4.95,8.68-4.95,.33,1.43,.46,3.4,.39,5.01-.07,2.09-.39,3.1-1.91,3.1-2.83,0-4.93,.95-6.38,2.26v20.2h-9.01V31.11Z" />
          <path class="i"
            d="M236.93,19.72c2.89,0,4.08,1.31,4.08,3.99,0,2.38-1.64,3.93-5.92,3.93-3.09,0-4.08-1.73-4.08-4.05s1.51-3.87,5.92-3.87Zm-5.53,41.17V31.64c1.18-.48,3.09-.77,4.8-.77,3.49,0,4.21,.89,4.21,4.05v25.98h-9.01Z" />
          <path class="i"
            d="M258.63,30.33c4.47,0,7.17,1.43,7.7,1.79,0,3.93-.99,6.02-2.7,6.02-1.12,0-2.63-1.01-4.87-1.01-.86,0-1.64,.18-2.43,.48-.33,.54-1.64,3.63-1.64,8.4,0,6.14,2.24,8.88,5.72,8.88,1.91,0,3.75-.54,5-1.13l.99,5.36c-1.64,1.07-4.21,2.38-8.42,2.38-8.03,0-12.63-5.42-12.63-15.37s4.54-15.79,13.29-15.79Z" />
          <path class="i"
            d="M288.3,61.5c-2.57,0-3.68-.77-4.08-3.46-1.71,1.91-4.34,3.46-8.22,3.46-4.87,0-7.83-3.46-7.83-8.64,0-7.09,4.54-9.41,15.33-10.01,0-4.71-.33-5.9-3.88-5.9-2.5,0-5.46,1.01-7.3,1.01-2.11,0-3.09-1.43-3.16-5.36,2.83-1.19,7.5-2.26,12.37-2.26,7.7,0,10.92,2.44,10.92,10.13v20.5c-1.12,.3-2.76,.54-4.14,.54Zm-9.14-6.38c1.64,0,3.09-.6,4.34-1.61v-6.02c-1.64,.12-4.87,.42-6.45,.89-.46,.89-.66,2.09-.66,3.22,0,2.2,.92,3.52,2.76,3.52Z" />
          <path class="i"
            d="M321.13,30.33c3.09,0,5.2,1.07,6.32,1.91v-11.26c1.12-.36,3.03-.66,4.8-.66,3.49,0,4.14,.66,4.14,4.41V61.14c-1.12,.24-2.63,.42-4.28,.36-2.37-.06-3.68-.72-4.28-3.34-.92,1.01-3.55,3.34-7.83,3.34-6.64,0-9.93-6.2-9.93-15.55s3.62-15.61,11.05-15.61Zm2.37,24.61c1.64,0,3.16-.77,3.95-1.49v-15.31c-1.51-1.07-4.28-1.79-6.71-1.07-.72,1.55-1.25,4.95-1.25,8.94,0,6.85,1.64,8.94,4.01,8.94Z" />
          <path class="i"
            d="M354.94,30.33c8.09,0,11.18,4.59,11.18,13.76,0,1.37,0,2.92-.2,4.59h-15.06c.2,4.05,1.91,6.38,5.53,6.38s5.46-1.01,6.71-1.01c1.58,0,2.24,1.31,2.17,5.36-2.17,1.13-5.66,2.09-10.72,2.09-9.67,0-13.09-6.73-13.09-15.67s4.21-15.49,13.49-15.49Zm-.33,6.26c-1.45,0-2.57,.72-2.76,.77-.2,.66-1.05,3.04-1.05,6.44l7.17-.42c.2-4.23-.79-6.79-3.35-6.79Z" />
          <path class="i"
            d="M145.34,78.82c5.73,0,9.41,1.48,10.47,2.22-.16,6.37-2.05,8.22-3.84,8.22-2.13,0-3.19-1.11-7.69-1.11-1.8,0-4.01,.52-5.24,1.11-1.88,3.26-2.54,8.52-2.54,13.49,0,11.19,3.93,14.6,9.57,14.6,2.78,0,5.56-.67,7.77-2l1.96,8.15c-3.11,2.15-7.12,3.33-12.27,3.33-12.68,0-19.23-7.34-19.23-24.53s8.59-23.49,21.02-23.49Z" />
          <path class="i"
            d="M183.38,126.84c-3.19,0-4.58-.96-5.07-4.3-2.13,2.37-5.4,4.3-10.23,4.3-6.05,0-9.74-4.3-9.74-10.74,0-8.82,5.64-11.71,19.06-12.45,0-5.85-.41-7.34-4.83-7.34-3.11,0-6.79,1.26-9.08,1.26-2.62,0-3.84-1.78-3.93-6.67,3.52-1.48,9.33-2.82,15.38-2.82,9.57,0,13.58,3.04,13.58,12.6v25.49c-1.39,.37-3.44,.67-5.15,.67Zm-3.35-55.28c2.21,1.19,3.93,3.04,3.93,4.74s-1.31,3.26-4.5,5.04c-1.15,.74-6.95,3.63-8.84,4.3l-4.01-3.33,13.42-10.74Zm-8.02,47.35c2.05,0,3.84-.74,5.4-2v-7.48c-2.05,.15-6.05,.52-8.02,1.11-.57,1.11-.82,2.59-.82,4,0,2.74,1.15,4.37,3.44,4.37Z" />
          <path class="i"
            d="M196.06,117.5v-40.83c1.47-.52,3.93-1.04,5.89-1.04,4.42,0,5.32,1.11,5.32,5.48v34.9c0,2.07,1.15,3.04,2.95,3.04,1.23,0,2.54-.37,3.11-.52l.16,6.67c-1.88,.96-4.66,1.63-7.94,1.63-5.81,0-9.49-2.82-9.49-9.34Z" />
          <path class="i"
            d="M232.22,88.08c5.56,0,8.92,1.78,9.57,2.22,0,4.89-1.23,7.48-3.35,7.48-1.39,0-3.27-1.26-6.05-1.26-1.06,0-2.05,.22-3.03,.59-.41,.67-2.05,4.52-2.05,10.45,0,7.63,2.78,11.04,7.12,11.04,2.37,0,4.66-.67,6.22-1.41l1.23,6.67c-2.05,1.33-5.24,2.96-10.47,2.96-9.98,0-15.71-6.74-15.71-19.12s5.64-19.64,16.53-19.64Z" />
          <path class="i"
            d="M277.78,125.58c-1.14,.52-3.44,1.26-5.97,1.26-2.95,0-3.93-.67-4.91-4.22-1.06,1.11-5.24,4.22-10.55,4.22-7.12,0-10.14-3.93-10.14-11.34v-26.45c1.06-.15,3.52-.52,5.32-.52,4.42,0,5.89,.59,5.89,5.04v20.08c0,3.26,.9,4.45,3.35,4.45,2.95,0,5.56-2.07,5.89-2.37v-26.97h11.13v36.83Z" />
          <path class="i"
            d="M285.63,117.5v-40.83c1.47-.52,3.93-1.04,5.89-1.04,4.42,0,5.32,1.11,5.32,5.48v34.9c0,2.07,1.14,3.04,2.95,3.04,1.23,0,2.54-.37,3.11-.52l.16,6.67c-1.88,.96-4.66,1.63-7.94,1.63-5.81,0-9.49-2.82-9.49-9.34Z" />
          <path class="i"
            d="M338.4,107.64c0,11.71-5.15,19.19-18,19.19-9.82,0-15.14-8-15.14-19.71,0-7.93,2.13-19.04,17.83-19.04,10.96,0,15.3,7.34,15.3,19.56Zm-16.53,11.41c1.39,0,2.62-.3,3.68-.96,.16-.52,1.72-4.37,1.72-10.67,0-8.37-1.47-11.41-5.24-11.41-1.39,0-2.62,.3-3.84,.82-.57,1.19-1.8,4.45-1.8,10.6,0,8.45,1.88,11.63,5.48,11.63Z" />
          <path class="i"
            d="M358.44,88.08c3.6,0,6.95,.67,9.41,1.56,.08,.67,.08,1.33,.08,2-.08,3.41-1.31,5.56-3.44,5.56-1.47,0-3.52-1.04-6.95-1.04-1.72,0-3.11,.3-4.01,.59-.33,.52-.49,1.33-.49,2,0,1.93,1.55,2.67,6.95,4.52,6.54,1.85,9.16,4.96,9.16,10.82,0,8-6.14,12.75-15.38,12.75-4.5,0-8.18-.96-10.63-2.22-.16-.74-.25-1.63-.25-2.52,.25-2.45,1.15-4.82,2.86-4.82s3.44,1.48,8.34,1.48c2.13,0,3.52-.3,4.42-.82,.33-.37,.57-1.33,.57-2.22,0-2.07-2.21-2.67-6.38-4.15-6.79-2.45-9.65-6.08-9.65-11.19,0-7.19,5.24-12.3,15.38-12.3Z" />
        </g>
      </g>
    </g>
  </g>
</svg>
