<?xml version="1.0" encoding="UTF-8"?>
<svg id="Layer_2" xmlns="http://www.w3.org/2000/svg" height="36px" viewBox="0 0 188.96 53.66">
  <defs>
    <style>
      .cls-1 {
        fill: #010101;
        stroke-width: 0px;
      }
    </style>
  </defs>
  <g id="Layer_1-2">
    <path class="cls-1"
      d="M44.37.89v14.79h-8.87V.89H14.67C6.58.89,0,7.47,0,15.56v35.62h5.92v-14.79h8.87v14.79h20.83c8.09,0,14.67-6.58,14.67-14.67V.89h-5.91ZM14.79,30.46H5.92v-14.91c0-4.83,3.92-8.75,8.75-8.75h14.91v8.87h-14.79v14.79ZM44.37,36.51c0,4.83-3.93,8.75-8.75,8.75h-14.91v-23.66h23.66v14.91Z" />
    <path class="cls-1"
      d="M65.35.59c2.59,0,3.61,1.91,3.61,3.85s-1.03,3.85-3.67,3.85h-3.7v4.93h-1.21V.59h4.97ZM65.24,7.15c1.82,0,2.51-1.34,2.51-2.71s-.68-2.71-2.42-2.71h-3.74v5.43h3.65Z" />
    <path class="cls-1" d="M71.11,13.22V0h1.17v13.22h-1.17Z" />
    <path class="cls-1"
      d="M82.39,4.66h1.17v8.57h-1.17v-1.78c-.62,1.17-1.94,2-3.47,2-2.33,0-4.29-1.96-4.29-4.51s1.89-4.49,4.33-4.49c1.47,0,2.79.72,3.43,1.89v-1.67ZM82.39,8.97c0-2-1.61-3.41-3.34-3.41s-3.26,1.54-3.26,3.37,1.47,3.39,3.28,3.39,3.32-1.43,3.32-3.36Z" />
    <path class="cls-1" d="M90.2,4.66v1.01h-1.96v7.56h-1.16v-7.56h-1.56v-1.01h1.56V1.45h1.16v3.21h1.96Z" />
    <path class="cls-1"
      d="M98.99,4.66h1.17v8.57h-1.17v-1.78c-.62,1.17-1.94,2-3.47,2-2.33,0-4.29-1.96-4.29-4.51s1.89-4.49,4.33-4.49c1.47,0,2.79.72,3.43,1.89v-1.67ZM98.99,8.97c0-2-1.61-3.41-3.34-3.41s-3.26,1.54-3.26,3.37,1.47,3.39,3.28,3.39,3.32-1.43,3.32-3.36Z" />
    <path class="cls-1"
      d="M106.99,1.12c-1.61,0-2.07,1.08-2.07,2.46v1.08h2.18v1.01h-2.18v7.56h-1.17v-7.56h-1.69v-1.01h1.69v-.95c0-2.15.84-3.7,3.08-3.7h.81v1.12h-.64Z" />
    <path class="cls-1"
      d="M108.05,8.93c0-2.71,2.04-4.49,4.47-4.49s4.49,1.78,4.49,4.49-2.05,4.51-4.49,4.51-4.47-1.8-4.47-4.51ZM115.85,8.93c0-2.02-1.52-3.37-3.32-3.37s-3.3,1.36-3.3,3.37,1.49,3.39,3.3,3.39,3.32-1.38,3.32-3.39Z" />
    <path class="cls-1"
      d="M124.58,4.7l-.22,1.12c-.44-.18-.84-.24-1.16-.24-2.04,0-2.66,2.31-2.66,4.42v3.23h-1.19V4.66h1.19v2.09c.42-1.45,1.34-2.31,2.68-2.31.48,0,1.03.09,1.36.26Z" />
    <path class="cls-1"
      d="M139.88,8.24v4.99h-1.17v-4.93c0-1.65-.99-2.71-2.4-2.71-1.61-.02-2.68.99-2.68,3.28v4.37h-1.16v-4.93c0-1.67-.99-2.71-2.35-2.71s-2.7.84-2.73,2.9v4.75h-1.17V4.66h1.17v1.52c.42-1.14,1.67-1.74,2.93-1.74,1.38,0,2.53.73,3.01,2.05.66-1.69,2.15-2.05,3.15-2.05,2.07,0,3.39,1.43,3.39,3.8Z" />
    <path class="cls-1"
      d="M149.87,4.66h1.17v8.57h-1.17v-1.78c-.62,1.17-1.94,2-3.47,2-2.33,0-4.29-1.96-4.29-4.51s1.89-4.49,4.33-4.49c1.47,0,2.79.72,3.43,1.89v-1.67ZM149.87,8.97c0-2-1.61-3.41-3.34-3.41s-3.26,1.54-3.26,3.37,1.47,3.39,3.28,3.39,3.32-1.43,3.32-3.36Z" />
    <path class="cls-1"
      d="M65.16,18.67c3.58,0,5.65,2.75,5.65,6.35s-2.07,6.29-5.65,6.29h-4.79v-12.64h4.79ZM65.16,30.17c2.88,0,4.44-2.24,4.44-5.15s-1.56-5.21-4.44-5.21h-3.58v10.36h3.58Z" />
    <path class="cls-1"
      d="M72.92,19.58c0-.5.42-.84.9-.84.51,0,.92.35.92.84s-.4.83-.92.83c-.48,0-.9-.35-.9-.83ZM73.24,31.3v-8.57h1.17v8.57h-1.17Z" />
    <path class="cls-1"
      d="M84.52,22.74h1.17v7.39c0,4.15-1.85,5.56-4.64,5.56-1.45,0-2.86-.72-3.7-2.11l.99-.55c.62,1.03,1.69,1.54,2.71,1.54,2.09,0,3.47-1.06,3.47-4.37v-.55c-.64,1.16-1.98,1.87-3.41,1.87-2.38,0-4.35-1.91-4.35-4.51s1.94-4.49,4.35-4.49c1.45,0,2.77.72,3.41,1.87v-1.65ZM84.52,27.05c0-2.07-1.61-3.41-3.32-3.41-1.8,0-3.26,1.47-3.26,3.36s1.47,3.41,3.26,3.41,3.32-1.38,3.32-3.36Z" />
    <path class="cls-1"
      d="M88.31,19.58c0-.5.42-.84.9-.84.51,0,.92.35.92.84s-.4.83-.92.83c-.48,0-.9-.35-.9-.83ZM88.63,31.3v-8.57h1.17v8.57h-1.17Z" />
    <path class="cls-1" d="M96.44,22.74v1.01h-1.96v7.56h-1.16v-7.56h-1.56v-1.01h1.56v-3.21h1.16v3.21h1.96Z" />
    <path class="cls-1"
      d="M105.23,22.74h1.17v8.57h-1.17v-1.78c-.62,1.17-1.94,2-3.47,2-2.33,0-4.29-1.96-4.29-4.51s1.89-4.49,4.33-4.49c1.47,0,2.79.72,3.43,1.89v-1.67ZM105.23,27.05c0-2-1.61-3.41-3.34-3.41s-3.26,1.54-3.26,3.37,1.47,3.39,3.28,3.39,3.32-1.43,3.32-3.36Z" />
    <path class="cls-1" d="M109.34,31.3v-13.22h1.17v13.22h-1.17Z" />
    <path class="cls-1"
      d="M125.42,18.08h1.17v13.22h-1.17v-1.67c-.64,1.17-1.98,1.89-3.41,1.89-2.38,0-4.35-1.91-4.35-4.51s1.94-4.49,4.35-4.49c1.45,0,2.77.7,3.41,1.87v-6.31ZM125.42,27.05c0-2.07-1.61-3.41-3.32-3.41-1.8,0-3.26,1.47-3.26,3.36s1.47,3.41,3.26,3.41,3.32-1.38,3.32-3.36Z" />
    <path class="cls-1"
      d="M128.94,27.01c0-2.71,2.04-4.49,4.48-4.49s4.49,1.78,4.49,4.49-2.05,4.51-4.49,4.51-4.48-1.8-4.48-4.51ZM136.74,27.01c0-2.02-1.52-3.37-3.32-3.37s-3.3,1.36-3.3,3.37,1.49,3.39,3.3,3.39,3.32-1.38,3.32-3.39Z" />
    <path class="cls-1"
      d="M65.35,36.75c2.59,0,3.61,1.91,3.61,3.85s-1.03,3.85-3.67,3.85h-3.7v4.93h-1.21v-12.64h4.97ZM65.24,43.31c1.82,0,2.51-1.34,2.51-2.71s-.68-2.71-2.42-2.71h-3.74v5.43h3.65Z" />
    <path class="cls-1"
      d="M70.19,45.09c0-2.71,2.04-4.49,4.48-4.49s4.49,1.78,4.49,4.49-2.05,4.51-4.49,4.51-4.48-1.8-4.48-4.51ZM77.99,45.09c0-2.02-1.52-3.37-3.32-3.37s-3.3,1.36-3.3,3.37,1.49,3.39,3.3,3.39,3.32-1.38,3.32-3.39Z" />
    <path class="cls-1"
      d="M88.66,36.16h1.17v13.22h-1.17v-1.67c-.64,1.17-1.98,1.89-3.41,1.89-2.38,0-4.35-1.91-4.35-4.51s1.94-4.49,4.35-4.49c1.45,0,2.77.7,3.41,1.87v-6.31ZM88.66,45.13c0-2.07-1.61-3.41-3.32-3.41-1.8,0-3.26,1.47-3.26,3.36s1.47,3.41,3.26,3.41,3.32-1.38,3.32-3.36Z" />
    <path class="cls-1"
      d="M100.75,45.59h-7.37c.2,1.83,1.49,2.9,3.21,2.9,1.17,0,2.22-.57,2.79-1.5l1.01.44c-.75,1.38-2.22,2.18-3.83,2.18-2.42,0-4.35-1.82-4.35-4.53s1.93-4.48,4.35-4.48,4.24,1.76,4.24,4.48c0,.17-.02.35-.04.51ZM99.61,44.58c-.17-1.78-1.39-2.86-3.06-2.86s-2.92,1.03-3.15,2.86h6.22Z" />
    <path class="cls-1"
      d="M108.31,40.86l-.22,1.12c-.44-.18-.84-.24-1.16-.24-2.04,0-2.66,2.31-2.66,4.42v3.23h-1.19v-8.57h1.19v2.09c.42-1.45,1.34-2.31,2.68-2.31.48,0,1.03.09,1.36.26Z" />
    <path class="cls-1"
      d="M111.08,53.53l.13-1.16c.28.07.83.11,1.01.11,1.87,0,2.57-1.28,2.57-2.84v-12.89h1.21v12.89c0,2.18-1.03,4.02-3.78,4.02-.33,0-.77-.07-1.14-.13Z" />
    <path class="cls-1"
      d="M125.55,40.82h1.17v8.57h-1.17v-1.5c-.51,1.21-1.91,1.72-2.97,1.72-2.07,0-3.48-1.43-3.47-3.8v-4.99h1.17v4.97c0,1.65,1.03,2.7,2.42,2.7s2.82-.81,2.84-2.88v-4.79Z" />
    <path class="cls-1"
      d="M136.83,36.16h1.17v13.22h-1.17v-1.67c-.64,1.17-1.98,1.89-3.41,1.89-2.38,0-4.35-1.91-4.35-4.51s1.94-4.49,4.35-4.49c1.45,0,2.77.7,3.41,1.87v-6.31ZM136.83,45.13c0-2.07-1.61-3.41-3.32-3.41-1.8,0-3.26,1.47-3.26,3.36s1.47,3.41,3.26,3.41,3.32-1.38,3.32-3.36Z" />
    <path class="cls-1"
      d="M140.63,37.66c0-.5.42-.84.9-.84.51,0,.92.35.92.84s-.4.83-.92.83c-.48,0-.9-.35-.9-.83ZM140.94,49.38v-8.57h1.17v8.57h-1.17Z" />
    <path class="cls-1"
      d="M144.44,45.09c0-2.71,2.09-4.49,4.55-4.49,1.21,0,2.31.46,3.06,1.17l-.72.81c-.59-.53-1.41-.86-2.31-.86-1.89,0-3.41,1.36-3.41,3.37s1.52,3.39,3.41,3.39c.9,0,1.71-.33,2.31-.86l.73.81c-.77.73-1.87,1.17-3.08,1.17-2.46,0-4.55-1.8-4.55-4.51Z" />
    <path class="cls-1"
      d="M153.91,37.66c0-.5.42-.84.9-.84.51,0,.92.35.92.84s-.4.83-.92.83c-.48,0-.9-.35-.9-.83ZM154.22,49.38v-8.57h1.17v8.57h-1.17Z" />
    <path class="cls-1"
      d="M165.5,40.82h1.17v8.57h-1.17v-1.78c-.62,1.17-1.94,2-3.47,2-2.33,0-4.29-1.96-4.29-4.51s1.89-4.49,4.33-4.49c1.47,0,2.79.72,3.43,1.89v-1.67ZM165.5,45.13c0-2-1.61-3.41-3.34-3.41s-3.26,1.54-3.26,3.37,1.47,3.39,3.28,3.39,3.32-1.43,3.32-3.36ZM165.17,36.75l-2.05,2.81h-1.14l1.78-2.81h1.41Z" />
    <path class="cls-1"
      d="M174.84,40.86l-.22,1.12c-.44-.18-.84-.24-1.16-.24-2.04,0-2.66,2.31-2.66,4.42v3.23h-1.19v-8.57h1.19v2.09c.42-1.45,1.34-2.31,2.68-2.31.48,0,1.03.09,1.36.26Z" />
    <path class="cls-1"
      d="M176.16,37.66c0-.5.42-.84.9-.84.51,0,.92.35.92.84s-.4.83-.92.83c-.48,0-.9-.35-.9-.83ZM176.47,49.38v-8.57h1.17v8.57h-1.17Z" />
    <path class="cls-1"
      d="M179.99,45.09c0-2.71,2.04-4.49,4.48-4.49s4.49,1.78,4.49,4.49-2.05,4.51-4.49,4.51-4.48-1.8-4.48-4.51ZM187.79,45.09c0-2.02-1.52-3.37-3.32-3.37s-3.3,1.36-3.3,3.37,1.49,3.39,3.3,3.39,3.32-1.38,3.32-3.39Z" />
  </g>
</svg>
